HIERARCHY
ROOT Hips
{
	OFFSET 0.000000 0.000000 0.000000
	CHANNELS 6 Xposition Yposition Zposition Xrotation Yrotation Zrotation
	JOINT LeftUpLeg_virtual
	{
		OFFSET 0.000000 0.000000 0.000000
		CHANNELS 3 Xrotation Yrotation Zrotation
		JOINT LeftUpLeg
		{
			OFFSET 11.394100 -6.187798 -0.413800
			CHANNELS 3 Xrotation Yrotation Zrotation
			JOINT LeftLeg
			{
				OFFSET 0.430247 -32.302673 3.732800
				CHANNELS 3 Xrotation Yrotation Zrotation
				JOINT LeftFoot
				{
					OFFSET -0.430247 -48.264931 -6.423300
					CHANNELS 3 Xrotation Yrotation Zrotation
					JOINT LeftToeBase
					{
						OFFSET 4.230900 -16.068199 23.438400
						CHANNELS 3 Xrotation Yrotation Zrotation
						JOINT LeftToe_End
						{
							OFFSET 4.510700 0.695400 19.974600
							CHANNELS 3 Xrotation Yrotation Zrotation
							End Site
							{
								OFFSET 0 0 0
							}
						}
					}
				}
			}
		}
	}
	JOINT RightUpLeg_virtual
	{
		OFFSET 0.000000 0.000000 0.000000
		CHANNELS 3 Xrotation Yrotation Zrotation
		JOINT RightUpLeg
		{
			OFFSET -11.333700 -6.187798 -0.413800
			CHANNELS 3 Xrotation Yrotation Zrotation
			JOINT RightLeg
			{
				OFFSET -0.430392 -32.302628 3.733000
				CHANNELS 3 Xrotation Yrotation Zrotation
				JOINT RightFoot
				{
					OFFSET 0.430392 -48.264973 -6.423500
					CHANNELS 3 Xrotation Yrotation Zrotation
					JOINT RightToeBase
					{
						OFFSET -4.230900 -16.068199 23.438400
						CHANNELS 3 Xrotation Yrotation Zrotation
						JOINT RightToe_End
						{
							OFFSET -4.510700 0.695400 19.974600
							CHANNELS 3 Xrotation Yrotation Zrotation
							End Site
							{
								OFFSET 0 0 0
							}
						}
					}
				}
			}
		}
	}
	JOINT Spine_virtual
	{
		OFFSET 0.000000 0.000000 0.000000
		CHANNELS 3 Xrotation Yrotation Zrotation
		JOINT Spine
		{
			OFFSET -0.002400 12.777504 0.315300
			CHANNELS 3 Xrotation Yrotation Zrotation
			JOINT Spine1
			{
				OFFSET -0.002067 5.816869 0.032633
				CHANNELS 3 Xrotation Yrotation Zrotation
				JOINT Spine1_split
				{
					OFFSET -0.002067 5.816869 0.032633
					CHANNELS 3 Xrotation Yrotation Zrotation
					JOINT Spine2
					{
						OFFSET -0.002067 5.816869 0.032633
						CHANNELS 3 Xrotation Yrotation Zrotation
						JOINT Neck_virtual
						{
							OFFSET 0.000000 0.000000 0.000000
							CHANNELS 3 Xrotation Yrotation Zrotation
							JOINT Neck
							{
								OFFSET -0.003700 21.199493 -0.826900
								CHANNELS 3 Xrotation Yrotation Zrotation
								JOINT Head
								{
									OFFSET 0.000000 20.442200 4.834800
									CHANNELS 3 Xrotation Yrotation Zrotation
									JOINT HeadTop_End
									{
										OFFSET 0.000000 34.668396 4.968400
										CHANNELS 3 Xrotation Yrotation Zrotation
										End Site
										{
											OFFSET 0 0 0
										}
									}
								}
							}
						}
						JOINT LeftShoulder_virtual
						{
							OFFSET 0.000000 0.000000 0.000000
							CHANNELS 3 Xrotation Yrotation Zrotation
							JOINT LeftShoulder
							{
								OFFSET 3.288150 8.794197 -1.372250
								CHANNELS 3 Xrotation Yrotation Zrotation
								JOINT LeftShoulder_split
								{
									OFFSET 3.288150 8.794197 -1.372250
									CHANNELS 3 Xrotation Yrotation Zrotation
									JOINT LeftArm
									{
										OFFSET 11.953299 -2.279007 -0.146200
										CHANNELS 3 Xrotation Yrotation Zrotation
										JOINT LeftForeArm
										{
											OFFSET 18.448900 0.000000 0.000000
											CHANNELS 3 Xrotation Yrotation Zrotation
											JOINT LeftHand
											{
												OFFSET 29.527798 0.000000 0.000000
												CHANNELS 3 Xrotation Yrotation Zrotation
												End Site
												{
													OFFSET 0 0 0
												}
											}
										}
									}
								}
							}
						}
						JOINT RightShoulder_virtual
						{
							OFFSET 0.000000 0.000000 0.000000
							CHANNELS 3 Xrotation Yrotation Zrotation
							JOINT RightShoulder
							{
								OFFSET -3.249400 8.794197 -1.372250
								CHANNELS 3 Xrotation Yrotation Zrotation
								JOINT RightShoulder_split
								{
									OFFSET -3.249400 8.794197 -1.372250
									CHANNELS 3 Xrotation Yrotation Zrotation
									JOINT RightArm
									{
										OFFSET -11.953299 -2.279007 -0.146200
										CHANNELS 3 Xrotation Yrotation Zrotation
										JOINT RightForeArm
										{
											OFFSET -18.448900 0.000000 0.000000
											CHANNELS 3 Xrotation Yrotation Zrotation
											JOINT RightHand
											{
												OFFSET -29.527802 0.000000 0.000000
												CHANNELS 3 Xrotation Yrotation Zrotation
												End Site
												{
													OFFSET 0 0 0
												}
											}
										}
									}
								}
							}
						}
					}
				}
			}
		}
	}
}
MOTION
Frames: 6
Frame Time: 0.03333333
-0.158679 92.676224 -0.119823 0.000000 0.000000 0.000000 -4.664956 -45.921681 -2.680776 -36.537059 4.001044 10.124044 35.097931 -10.205057 3.293551 1.469850 -1.003322 -4.848155 -0.926058 -2.716617 0.663379 0.000000 0.000000 0.000000 -5.528335 -45.017603 -2.711500 -4.494348 -11.952810 -14.784417 25.526022 -8.805430 -1.669497 -17.789547 -5.267882 19.740964 -2.400056 -1.151673 -0.720513 0.000000 0.000000 0.000000 -3.482415 -42.840142 -1.874085 6.049621 5.129879 -0.968058 12.595004 9.402134 -3.161277 1.044082 -1.369511 0.654991 0.000000 0.000000 0.000000 12.276464 9.129401 -3.240080 -4.129067 -1.974069 0.365877 -4.508432 21.866333 -1.306128 0.000000 0.000000 0.000000 12.155177 9.344737 -3.064299 1.903427 -0.035310 -7.180611 -2.735255 -3.174682 -0.615765 -14.657991 3.836276 -61.379427 8.859294 -46.774303 5.321572 0.000000 0.000000 0.000000 12.233472 9.337969 -3.279887 1.439050 10.111581 11.640643 -1.912060 3.191829 -0.540419 3.615434 -21.312852 61.196241 -5.975843 41.682770 7.989995 0.000000 0.000000 0.000000 
-0.157733 92.684494 -0.058899 0.000000 0.000000 0.000000 -4.601396 -45.904339 -2.647881 -36.542827 3.972362 10.115820 35.046452 -10.201502 3.288627 1.417092 -0.987344 -4.820668 -0.874240 -2.722984 0.673279 0.000000 0.000000 0.000000 -5.428343 -44.985217 -2.676997 -4.491457 -11.855240 -14.782182 25.573973 -8.752466 -1.704027 -17.797214 -5.282095 19.780387 -2.383310 -1.164854 -0.689394 0.000000 0.000000 0.000000 -3.380343 -42.841323 -1.838427 6.018446 5.125452 -0.965818 12.557725 9.371622 -3.175075 1.098649 -1.477687 0.654069 0.000000 0.000000 0.000000 12.270714 9.102176 -3.229552 -4.095241 -1.848272 0.297380 -4.504205 22.003579 -1.244854 0.000000 0.000000 0.000000 12.129706 9.314426 -3.072888 1.916476 -0.049470 -7.237251 -2.685752 -3.153950 -0.488472 -14.684685 3.760398 -61.360254 8.909607 -46.910077 5.353847 0.000000 0.000000 0.000000 12.200747 9.307886 -3.257580 1.453064 10.092097 11.634738 -2.008416 3.264363 -0.489703 3.628047 -21.277445 61.211623 -5.936958 41.566677 7.956404 0.000000 0.000000 0.000000 
-0.147168 92.705368 -0.019413 0.000000 0.000000 0.000000 -4.503712 -45.935157 -2.597065 -36.517043 3.937212 10.098630 34.947356 -10.178746 3.305127 1.325553 -0.954789 -4.831738 -0.817042 -2.729919 0.672503 0.000000 0.000000 0.000000 -5.330028 -44.989872 -2.632621 -4.586474 -11.812971 -14.784556 25.660621 -8.690152 -1.757502 -17.778566 -5.311988 19.833968 -2.373836 -1.189936 -0.695891 0.000000 0.000000 0.000000 -3.253349 -42.849677 -1.795739 6.010619 5.106140 -0.962815 12.523740 9.318469 -3.179243 1.107707 -1.527594 0.679944 0.000000 0.000000 0.000000 12.244179 9.051385 -3.224622 -4.045767 -1.697971 0.238331 -4.415117 22.359722 -1.231148 0.000000 0.000000 0.000000 12.107616 9.254474 -3.079282 1.930956 -0.069366 -7.269402 -2.650164 -3.119259 -0.383207 -14.730773 3.723078 -61.371415 8.963507 -47.068507 5.395559 0.000000 0.000000 0.000000 12.176110 9.256017 -3.232806 1.459996 10.068419 11.640951 -2.054006 3.293719 -0.453191 3.583253 -21.168252 61.213781 -5.861482 41.363475 7.881034 0.000000 0.000000 0.000000 
-0.138748 92.721558 -0.013046 0.000000 0.000000 0.000000 -4.383747 -46.001406 -2.529219 -36.474764 3.900797 10.072898 34.837913 -10.141635 3.339158 1.229689 -0.908552 -4.884568 -0.776645 -2.735534 0.661375 0.000000 0.000000 0.000000 -5.235802 -45.015837 -2.574606 -4.785083 -11.830537 -14.794921 25.790977 -8.617097 -1.824943 -17.720864 -5.348613 19.929056 -2.371414 -1.225250 -0.727962 0.000000 0.000000 0.000000 -3.127899 -42.860438 -1.749049 6.025913 5.071982 -0.961644 12.492399 9.240800 -3.172573 1.053625 -1.524512 0.721340 0.000000 0.000000 0.000000 12.205562 8.976152 -3.222529 -3.998485 -1.515006 0.182045 -4.273215 22.966555 -1.288892 0.000000 0.000000 0.000000 12.085382 9.163863 -3.079200 1.944986 -0.094832 -7.282475 -2.642804 -3.055148 -0.310383 -14.767844 3.747649 -61.405368 9.023254 -47.269028 5.451984 0.000000 0.000000 0.000000 12.151077 9.180556 -3.204412 1.462950 10.038570 11.637687 -2.068951 3.283906 -0.444851 3.497232 -21.022571 61.193174 -5.770573 41.110721 7.782124 0.000000 0.000000 0.000000 
-0.128317 92.728027 -0.028439 0.000000 0.000000 0.000000 -4.262407 -46.084454 -2.452579 -36.442133 3.876725 10.041820 34.750124 -10.093531 3.378940 1.166039 -0.852802 -4.960646 -0.743199 -2.742064 0.643358 0.000000 0.000000 0.000000 -5.155594 -45.044531 -2.508880 -5.028484 -11.915755 -14.797887 25.927789 -8.534592 -1.909206 -17.649135 -5.382539 20.039476 -2.404768 -1.266377 -0.772253 0.000000 0.000000 0.000000 -3.027016 -42.872985 -1.697208 6.057469 5.025427 -0.961338 12.467686 9.137033 -3.160736 0.995556 -1.485947 0.741698 0.000000 0.000000 0.000000 12.162613 8.873414 -3.221500 -3.977704 -1.285080 0.115951 -4.124925 23.844481 -1.439953 0.000000 0.000000 0.000000 12.064797 9.039020 -3.073399 1.957353 -0.122569 -7.284695 -2.635104 -2.987131 -0.295754 -14.787086 3.812699 -61.450406 9.108390 -47.527899 5.532687 0.000000 0.000000 0.000000 12.122293 9.079523 -3.174605 1.462521 10.006510 11.614703 -2.054902 3.250128 -0.453191 3.392147 -20.878131 61.159952 -5.694723 40.873303 7.686547 0.000000 0.000000 0.000000 
-0.115286 92.726379 -0.048439 0.000000 0.000000 0.000000 -4.151952 -46.159501 -2.368068 -36.430586 3.877852 10.005428 34.692351 -10.035631 3.412202 1.145867 -0.799331 -5.034042 -0.704821 -2.752897 0.624051 0.000000 0.000000 0.000000 -5.089615 -45.062176 -2.435191 -5.243588 -12.064038 -14.775600 26.027595 -8.464344 -2.014752 -17.604089 -5.414798 20.114482 -2.485407 -1.305702 -0.804933 0.000000 0.000000 0.000000 -2.970141 -42.883971 -1.638471 6.089972 4.968763 -0.960444 12.446657 9.005295 -3.151023 0.941354 -1.425375 0.742565 0.000000 0.000000 0.000000 12.119724 8.738867 -3.222739 -4.010056 -0.990291 0.023177 -3.997267 25.016654 -1.703023 0.000000 0.000000 0.000000 12.046411 8.881273 -3.065865 1.969567 -0.148335 -7.287368 -2.585275 -2.971227 -0.305842 -14.783010 3.885140 -61.496571 9.227194 -47.833522 5.637423 0.000000 0.000000 0.000000 12.086310 8.948792 -3.144683 1.458524 9.979781 11.561544 -1.998367 3.207929 -0.465475 3.278340 -20.760012 61.123137 -5.650989 40.701528 7.614524 0.000000 0.000000 0.000000 
